<?xml version="1.0" encoding="utf-8"?>
<!-- Generator: Adobe Illustrator 27.0.1, SVG Export Plug-In . SVG Version: 6.00 Build 0)  -->
<svg version="1.1" id="Layer_1" xmlns="http://www.w3.org/2000/svg" xmlns:xlink="http://www.w3.org/1999/xlink" x="0px" y="0px"
	 viewBox="0 0 625 625" style="enable-background:new 0 0 625 625;" xml:space="preserve">
<style type="text/css">
	.st0{fill:#726658;stroke:#000000;stroke-miterlimit:10;}
	.st1{fill:#754C29;stroke:#000000;stroke-miterlimit:10;}
	.st2{fill:#F37329;stroke:#000000;stroke-miterlimit:10;}
	.st3{fill:#006838;stroke:#000000;stroke-miterlimit:10;}
	.st4{fill:#FBB040;stroke:#000000;stroke-miterlimit:10;}
</style>
<circle class="st0" cx="312.7" cy="347.3" r="150"/>
<path class="st0" d="M436.3,167.2c-8.8,23.7-19.7,44.9-31.1,62c-3-2.3-6-4.5-9.1-6.6c-16.6-11.1-35.6-19-56-22.8
	c-4.4-0.8-8.9-1.4-13.5-1.9c2.7-19.5,8.2-41.4,16.5-63.9c25-67.2,66.2-114.3,91.9-105.1C460.7,38,461.3,100,436.3,167.2z"/>
<path class="st0" d="M298.8,197.9c-4.5,0.4-9,1-13.4,1.8c-19.7,3.6-38.1,11.1-54.3,21.6c-3.8,2.5-7.5,5.1-11,7.9
	c-11.5-17.1-22.3-38.3-31.1-62c-25-67.2-24.4-129.1,1.3-138.3c25.8-9.2,66.9,37.9,91.9,105.1C290.6,156.5,296.1,178.4,298.8,197.9z"
	/>
<path class="st1" d="M285.4,199.7c-19.7,3.6-38.1,11.1-54.3,21.6c-11.5-14.5-22.7-34.7-31.4-58c-19.2-51.8-18.8-99.4,1-106.5
	s51.5,29.2,70.7,80.9C279.8,160.2,284.4,181.8,285.4,199.7z"/>
<path class="st1" d="M425.6,164c-8.2,23.2-18.7,43.5-29.5,58.5c-16.6-11.1-35.6-19-56-22.8c1.2-18.3,5.8-40.1,13.8-62.6
	c19.2-54.5,50.9-92.6,70.7-85.2S444.8,109.5,425.6,164z"/>
<polygon class="st2" points="318.1,511.9 337.3,515.2 352.1,465.9 320.8,452.4 354.3,458.5 367.6,414.1 322.7,395.6 370.4,404.8 
	387.7,347.3 237.7,347.3 261.7,427.5 309.5,418.2 264.5,436.8 280.7,490.7 314.4,484.7 282.9,498.2 296,541.7 314.8,538.5 
	297.3,546.2 312.7,597.3 335.9,519.8 "/>
<polygon class="st3" points="351.1,338.2 352.7,346.9 272.7,346.9 274.2,338.2 92.7,296.9 289.9,252.1 312.7,126.9 335.4,252.1 
	532.7,296.9 "/>
<polygon class="st4" points="312.7,59 320.4,74.7 337.7,77.2 325.2,89.4 328.1,106.6 312.7,98.5 297.2,106.6 300.2,89.4 287.7,77.2 
	304.9,74.7 "/>
<polygon class="st4" points="125.5,180.3 140,190 156.2,183.5 151.5,200.3 162.7,213.7 145.2,214.4 135.9,229.2 129.8,212.8 
	112.9,208.5 126.6,197.7 "/>
<polygon class="st4" points="499.8,180.3 498.7,197.7 512.4,208.5 495.5,212.8 489.4,229.2 480.1,214.4 462.7,213.7 473.8,200.3 
	469.1,183.5 485.3,190 "/>
<g>
	<g>
		<path d="M131.2,386.2c-1.9-6-2.8-9-4.3-15.1c1.6-0.4,2.4-0.6,4-1c1.9-0.5,3-1,3.4-1.5c0.4-0.5,0.5-1.2,0.3-2.1
			c-0.2-1-0.7-1.6-1.5-1.9s-1.9-0.4-3.3,0c-1.8,0.4-3.1,1-3.9,1.8s-1.6,2.6-2.2,5.5c-1.9,8.4-3.4,14.1-5.1,16.8
			c-1.7,2.7-5.1,5-10.3,6.7c-3.8,1.3-6.7,1.6-8.9,1c-2.2-0.6-4.4-2.5-6.7-5.6c-2.2-3.2-4-7.2-5.1-12c-1.2-5.3-1.4-10-0.7-14
			s2.2-6.8,4.3-8.2c2.1-1.5,5.2-2.5,9.3-3.1c1.4-0.2,2.2-0.3,3.6-0.5c1,6.9,1.6,10.3,3.1,17c-2.6,0.6-4,0.9-6.6,1.5
			c-2,0.5-3.3,1-3.8,1.6s-0.6,1.6-0.3,2.8s0.9,2.1,1.8,2.5s2,0.5,3.5,0.1c3.2-0.8,5.1-1.9,5.8-3.2c0.7-1.4,1.6-4.6,3.1-9.5
			s2.7-8.1,3.5-9.7s2.1-3,3.9-4.2c1.7-1.2,4.1-2,7-2.4c4.2-0.6,7.4-0.4,9.5,0.5c2.1,0.9,3.9,2.6,5.5,5c1.6,2.4,2.7,5.4,3.5,9
			c0.9,3.9,1.2,7.4,0.8,10.5s-1.3,5.4-2.7,6.8c-1.5,1.5-4.3,2.9-8.5,4.3C132.4,385.8,132,386,131.2,386.2z"/>
		<path d="M165.6,421.7c-10.4,2.2-15.7,3.1-26.4,4.4c-7.2,8.3-13.9,16.7-20.6,25.4c-4.2-7-6.2-10.6-9.8-17.9
			c7.1-7.2,10.7-10.6,18.1-17.3c-8.6,4-12.9,6-21.6,10.1c-3.3-7.2-4.8-10.9-7.6-18.3c17.3-6.5,34.7-13,52-19.5
			c2.1,5.8,3.3,8.7,5.9,14.3c-7.8,3.7-11.7,5.5-19.6,9.1c9.1-0.9,13.6-1.5,22.5-3C161.2,414.2,162.6,416.8,165.6,421.7z"/>
		<path d="M185.1,448.8c-12,14.6-23.5,29.5-34.5,44.9c-5.5-5.9-8.1-8.9-13.2-15.2c2.9-2.8,4.3-4.3,7.1-7.1c-1.7-2.1-2.5-3.2-4.1-5.4
			c-3.5,2-5.2,3.1-8.7,5.1c-4.8-6.5-7.1-9.9-11.4-16.8c17.4-7.2,34.4-14.8,51.3-23.1C176.6,438.5,179.3,442.1,185.1,448.8z
			 M151.9,464.8c4.4-4.7,9.9-10.2,16.7-16.5c-9.4,5.2-16.3,9-20.5,11.6C149.6,461.9,150.4,462.9,151.9,464.8z"/>
		<path d="M214.1,476.5c-2.7,3.5-4.1,5.3-6.8,8.9c-3.1-2.4-4.6-3.6-7.5-6.1c-9.6,11.4-19.1,22.8-28.6,34.2c-6-5.1-9-7.8-14.6-13.4
			c10.4-10.6,20.8-21.2,31.2-31.8c-2.7-2.7-4.1-4.1-6.6-6.9c3.3-3,4.9-4.5,8.2-7.6C197.4,461.9,205.3,469.2,214.1,476.5z"/>
		<path d="M218.5,479.7c8.4,6.1,12.8,8.9,22,13.9c-2.1,3.9-3.2,5.9-5.3,9.8c-3.9-2.1-5.8-3.2-9.6-5.5c-2.2,3.6-3.3,5.4-5.5,9
			c3.7,2.3,5.6,3.4,9.4,5.5c-2,3.7-3,5.6-5,9.3c-4-2.2-6-3.3-9.9-5.7c-2.5,4.2-3.8,6.3-6.4,10.5c4.8,2.9,7.2,4.3,12.2,7
			c-2.1,4-3.1,5.9-5.2,9.9c-10.2-5.8-19.8-11.8-29.4-18.5C196.8,509.9,207.6,494.8,218.5,479.7z"/>
	</g>
</g>
<g>
	<g>
		<path d="M383.4,493.4c5-2.7,7.4-4.1,12.1-7.1c3.7-2.4,6.7-4,9-4.7s4.6-0.6,7.1,0.3s5.2,3.3,8.2,7.2c2,2.7,3,4.8,2.9,6.5
			s-1.2,3.8-3.5,6.3c3.4-1.5,6.2-2,8.3-1.3s4.3,2.4,6.6,5.3c1.3,1.7,1.9,2.5,3.2,4.2c2.3,3,3.7,5.6,4,7.8c0.3,2.1-0.3,4.2-1.8,6.1
			c-1.5,1.9-5.1,5.1-11.3,9c-7,4.5-10.6,6.7-18.1,10.7C401.1,526.9,392.2,510.2,383.4,493.4z M400.7,494.6c2.7,4.3,4,6.4,6.7,10.7
			c0.5-0.4,1-0.7,1.3-0.9c1.3-0.8,1.9-1.7,1.9-2.5s-1-2.7-2.9-5.5c-1-1.5-1.8-2.4-2.5-2.9c-0.7-0.4-1.3-0.6-1.8-0.4
			C402.9,493.3,402,493.8,400.7,494.6z M412.1,512.8c3.4,5.4,5.1,8.1,8.4,13.5c2-1.4,3.2-2.5,3.4-3.4c0.2-0.9-0.3-2.2-1.5-4.2
			c-1.2-1.8-1.8-2.7-2.9-4.4c-1.3-2-2.4-3.1-3.1-3.2C415.6,511,414.2,511.6,412.1,512.8z"/>
		<path d="M438.4,449.5c9.5,8.4,19,16.8,28.5,25.1c3.2,2.8,5.4,5,6.5,6.4s1.8,3.3,2.1,5.8s-0.2,5-1.4,7.7c-1.2,2.6-3.1,5.3-5.8,7.9
			c-2.9,2.9-6,5-9.1,6.2s-5.8,1.7-8.1,1.3c-2.3-0.4-4.2-1.3-5.7-2.7s-4.2-4.5-8.3-9.5c-7.1-8.7-14.2-17.4-21.3-26
			c4.3-3.5,6.4-5.4,10.4-9.2c9.8,10.3,19.5,20.7,29.3,31c1.7,1.8,2.9,2.8,3.6,3.1c0.7,0.3,1.4,0.1,2.1-0.6c0.8-0.8,1-1.5,0.7-2.3
			s-1.5-2.2-3.5-4.2c-9.8-10-19.6-19.9-29.4-29.9C432.9,455.7,434.8,453.6,438.4,449.5z"/>
		<path d="M460.3,418.7c16.3,9.5,32.7,19.1,49,28.6c-3.1,5.4-4.8,8.1-8.2,13.3c-10.6-2.7-15.9-4.2-26.1-7.5
			c8.4,6.1,12.5,9.1,20.9,15.2c-3.5,4.8-5.3,7.2-9,11.9c-14.6-12-29.3-24-43.9-36c2.9-3.6,4.3-5.4,7-9.2c10.1,3.5,15.2,5,25.6,7.8
			c-8.5-5.7-12.8-8.5-21.3-14.2C456.8,424.7,458,422.7,460.3,418.7z"/>
		<path d="M476.1,383.9c17.9,6.2,35.7,12.3,53.6,18.5c-2,6-3.1,8.9-5.5,14.8c-10.9-0.5-16.4-1-27.1-2.2c9.4,4.3,14,6.5,23.4,10.8
			c-2.5,5.5-3.8,8.1-6.6,13.4c-16.7-8.9-33.3-17.9-50-26.8c2.2-4.1,3.2-6.2,5.1-10.4c10.6,1.5,15.9,2,26.7,2.6
			c-9.4-3.9-14.1-5.9-23.6-9.8C473.8,390.5,474.6,388.3,476.1,383.9z"/>
		<path d="M484.7,347.6c11.5,5.2,22.8,10.9,33.8,17.2c8,1.6,12.1,2.4,20.1,4c-1.3,6.6-2,9.9-3.7,16.4c-7.9-2.1-11.9-3.2-19.8-5.3
			c-12.5,0.7-25.1,0.7-37.7,0.1c1.5-4.9,2.2-7.4,3.5-12.4c11.2,0.7,18.8,1.1,22.5,1.7c-5.7-2.2-12.6-5.3-20.9-8.9
			C483.5,355.3,484,352.8,484.7,347.6z"/>
	</g>
</g>
</svg>
